# AST/ASF file generated using VICON BodyLanguage
# -----------------------------------------------
:version 1.10
:name VICON
:units
  mass 1.0
  length 0.45
  angle deg
:documentation
   .ast/.asf automatically generated from VICON data using
   VICON BodyBuilder and BodyLanguage model FoxedUp or BRILLIANT.MOD
:root
   order TX TY TZ RX RY RZ
   axis XYZ
   position 0 0 0  
   orientation 0 0 0 
:bonedata
  begin
     id 1 
     name lhipjoint
     direction 0.573633 -0.743009 0.344793 
     length 2.46257 
     axis 0 0 0  XYZ
  end
  begin
     id 2 
     name lfemur
     direction 0.34202 -0.939693 0  
     length 7.3842  
     axis 0 0 20  XYZ
    dof rx ry rz
    limits (-160.0 20.0)
           (-70.0 70.0)
           (-60.0 70.0)
  end
  begin
     id 3 
     name ltibia
     direction 0.34202 -0.939693 0   
     length 7.50407   
     axis 0 0 20   XYZ
    dof rx
    limits (-10.0 170.0)
  end
  begin
     id 4 
     name lfoot
     direction 0.110749 -0.304281 0.946123   
     length 1.95925   
     axis -90 7.62852e-016 20   XYZ
    dof rx rz
    limits (-45.0 90.0)
           (-70.0 20.0)
  end
  begin
     id 5 
     name ltoes
     direction 1.53554e-011 -4.21843e-011 1   
     length 0.978318   
     axis -90 7.62852e-016 20   XYZ
    dof rx
    limits (-90.0 20.0)
  end
  begin
     id 6 
     name rhipjoint
     direction -0.488109 -0.791693 0.367385   
     length 2.31113  
     axis 0 0 0  XYZ 
  end
  begin
     id 7 
     name rfemur
     direction -0.34202 -0.939693 0   
     length 7.40965   
     axis 0 0 -20   XYZ
    dof rx ry rz
    limits (-160.0 20.0)
           (-70.0 70.0)
           (-70.0 60.0)
  end
  begin
     id 8 
     name rtibia
     direction -0.34202 -0.939693 0   
     length 7.55548   
     axis 0 0 -20   XYZ
    dof rx
    limits (-10.0 170.0)
 end
 begin
     id 9 
     name rfoot
     direction -0.127594 -0.350561 0.927808   
     length 2.07199  
     axis -90 -7.62852e-016 -20   XYZ
    dof rx rz
    limits (-45.0 90.0)
           (-20.0 70.0)
  end
  begin
     id 10 
     name rtoes
     direction -1.53542e-011 -4.21909e-011 1   
     length 1.02667   
     axis -90 -7.62852e-016 -20   XYZ
    dof rx
    limits (-90.0 20.0)
  end
  begin
     id 11 
     name lowerback
     direction -0.0103342 0.997298 -0.0727278   
     length 2.02836   
     axis 0 0 0   XYZ
    dof rx ry rz
    limits (-20.0 45.0)
           (-30.0 30.0)
           (-30.0 30.0)
  end
  begin
     id 12 
     name upperback
     direction 0.0171146 0.999786 -0.011606   
     length 2.03179   
     axis 0 0 0   XYZ
    dof rx ry rz
    limits (-20.0 45.0)
           (-30.0 30.0)
           (-30.0 30.0)
  end
  begin
     id 13 
     name thorax
     direction 0.0216927 0.999513 0.0224343   
     length 2.03882   
     axis 0 0 0   XYZ
    dof rx ry rz
    limits (-20.0 45.0)
           (-30.0 30.0)
           (-30.0 30.0)
  end
  begin
     id 14 
     name lowerneck
     direction 0.000989287 0.993907 0.110221   
     length 1.75428   
     axis 0 0 0   XYZ
    dof rx ry rz
    limits (-20.0 45.0)
           (-30.0 30.0)
           (-30.0 30.0)
  end
  begin
     id 15 
     name upperneck
     direction -0.0172474 0.994813 -0.100253   
     length 1.77058   
     axis 0 0 0   XYZ
    dof rx ry rz
    limits (-20.0 45.0)
           (-30.0 30.0)
           (-30.0 30.0)
  end
  begin
     id 16
     name head
     direction -0.00486455 0.99894 -0.0457663  
     length 1.77427  
     axis 0 0 0   XYZ
    dof rx ry rz
    limits (-20.0 45.0)
           (-30.0 30.0)
           (-30.0 30.0)
  end
  begin
     id 17 
     name lclavicle
     direction 0.927314 0.333734 -0.169441  
     length 3.97584  
     axis 0 0 0   XYZ
    dof ry rz
    limits (-20.0 10.0)
           (0.0 20.0)
  end
  begin
     id 18 
     name lhumerus
     direction 1 -4.48965e-011 -3.25313e-028   
     length 4.76468   
     axis 180 -30 -90   XYZ
    dof rx ry rz
    limits (-60.0 90.0)
           (-90.0 90.0)
           (-90.0 90.0)
  end
  begin
     id 19
     name lradius
     direction 1 -4.48969e-011 -2.8465e-028   
     length 3.52712   
     axis -180 -30 -90   XYZ
    dof rx
    limits (-10.0 170.0)
  end
  begin
     id 20
     name lwrist
     direction 1 -4.4896e-011 -7.78665e-028   
     length 1.76356   
     axis 1.91374e-015 90 90   XYZ
    dof ry
    limits (-180.0 0.0)
 end
  begin
     id 21 
     name lhand
     direction 1 -4.48959e-011 -1.55733e-027   
     length 0.859564   
     axis 9.9371e-016 90 90   XYZ
    dof rx rz
    limits (-90.0 90.0)
           (-45.0 45.0)
  end
  begin
     id 22 
     name lfingers
     direction 1 -4.48965e-011 -3.11466e-027   
     length 0.693002   
     axis 1.98742e-015 90 90   XYZ
    dof rx
    limits (0.0 90.0)
  end
  begin
     id 23
     name lthumb
     direction 0.707107 -6.34948e-011 0.707107   
     length 0.995017   
     axis -90 45 2.85299e-015   XYZ
    dof rx rz
    limits (-45.0 45.0)
           (-45.0 45.0)
  end
  begin
     id 24 
     name rclavicle
     direction -0.899388 0.348209 -0.264294   
     length 3.68366  
     axis 0 0 0   XYZ 
    dof ry rz
    limits (-10.0 20.0)
           (-20.0 0.0)
  end
  begin
     id 25 
     name rhumerus
     direction -1 -4.48965e-011 -3.01536e-027  
     length 4.90577   
     axis 180 30 90   XYZ
    dof rx ry rz
    limits (-90.0 60.0)
           (-90.0 90.0)
           (-90.0 90.0)
  end
  begin
     id 26 
     name rradius
     direction -1 -4.48966e-011 3.93291e-027   
     length 3.42692   
     axis -180 30 90   XYZ
    dof rx
    limits (-10.0 170.0)
  end
  begin
     id 27 
     name rwrist
     direction -1 -4.48969e-011 -7.78665e-028   
     length 1.71346   
     axis 1.91374e-015 -90 -90   XYZ
    dof ry
    limits (-180.0 0.0)
  end
  begin
     id 28
     name rhand
     direction -1 -4.48967e-011 -1.55733e-027   
     length 0.740957   
     axis 9.9371e-016 -90 -90   XYZ
    dof rx rz
    limits (-90.0 90.0)
           (-45.0 45.0)
  end
  begin
     id 29
     name rfingers
     direction -1 -4.48949e-011 -3.11466e-027   
     length 0.597378   
     axis 1.98742e-015 -90 -90   XYZ
    dof rx
    limits (0.0 90.0)
  end
  begin
     id 30
     name rthumb
     direction -0.707107 -6.34931e-011 0.707107   
     length 0.857719   
     axis -90 -45 -2.85299e-015   XYZ
    dof rx rz
    limits (-45.0 45.0)
           (-45.0 45.0)
  end
:hierarchy
  begin
    root lhipjoint rhipjoint lowerback
    lhipjoint lfemur
    lfemur ltibia
    ltibia lfoot
    lfoot ltoes
    rhipjoint rfemur
    rfemur rtibia
    rtibia rfoot
    rfoot rtoes
    lowerback upperback
    upperback thorax
    thorax lowerneck lclavicle rclavicle
    lowerneck upperneck
    upperneck head
    lclavicle lhumerus
    lhumerus lradius
    lradius lwrist
    lwrist lhand lthumb
    lhand lfingers
    rclavicle rhumerus
    rhumerus rradius
    rradius rwrist
    rwrist rhand rthumb
    rhand rfingers
  end

#!OML:ASF E:\I on waltz\AllaLogoMonkeySwing\Project 1\Capture day 1\Session 1\Subject1.ASF
:FULLY-SPECIFIED
:DEGREES
546
root 0.505567 17.5473 -26.459 -0.0474165 11.7066 -0.531908
lowerback 4.754 0.831074 -5.41
upperback 0.741839 0.835408 0.160046
thorax -1.98135 0.455343 3.14789
lowerneck -5.24335 7.84073 3.47841
upperneck 6.92224 10.756 -6.30936
head 3.80788 5.18638 -2.13925
rclavicle 1.9307e-014 3.18055e-015
rhumerus -28.9845 -19.8747 -80.478
rradius 20.7406
rwrist 9.79807
rhand -5.61865 -395.267
rfingers 7.12502
rthumb 20.1989 -64.237
lclavicle 1.9307e-014 3.18055e-015
lhumerus 13.7901 -37.0067 81.8216
lradius 141.33
lwrist -5.49809
lhand -37.8314 -43.7497
lfingers 7.12502
lthumb -10.8767 -14.0514
rfemur -6.60275 -5.12042 20.205
rtibia 31.6494
rfoot -23.6234 -9.937
rtoes 20.157
lfemur -8.0644 -2.07647 -21.8582
ltibia 29.7242
lfoot -24.1485 -5.33353
ltoes -22.606
547
root 0.512566 17.5425 -26.4396 -0.0651719 11.694 -0.352751
lowerback 4.70875 0.973159 -5.53879
upperback 0.691468 1.01589 -0.00244299
thorax -2.02449 0.547877 3.04005
lowerneck -5.19858 7.74185 3.57188
upperneck 7.03418 10.602 -6.08055
head 3.81917 5.12069 -2.08902
rclavicle 3.35449e-014 1.59028e-015
rhumerus -29.4684 -21.4301 -79.6506
rradius 20.0477
rwrist 10.8032
rhand -5.78657 -395.305
rfingers 7.12502
rthumb 20.0375 -64.292
lclavicle 3.35449e-014 1.59028e-015
lhumerus 13.7086 -36.962 81.798
lradius 141.29
lwrist -4.91428
lhand -38.0238 -43.5014
lfingers 7.12502
lthumb -11.0622 -13.813
rfemur -6.48462 -5.01157 19.99
rtibia 31.6835
rfoot -23.7857 -9.81968
rtoes 20.419
lfemur -7.93257 -2.04276 -22.0689
ltibia 29.724
lfoot -24.2197 -5.35262
ltoes -22.4614
548
root 0.518254 17.5373 -26.4189 -0.180754 11.7377 -0.295953
lowerback 4.67414 1.09378 -5.59233
upperback 0.705565 1.17439 -0.103051
thorax -2.00439 0.626153 2.95592
lowerneck -5.1789 7.63969 3.72319
upperneck 7.11532 10.4484 -5.98376
head 3.83876 5.05189 -2.0926
rclavicle -2.6339e-015 -6.36111e-015
rhumerus -29.9362 -22.7797 -78.8331
rradius 19.3918
rwrist 11.7547
rhand -5.95376 -395.012
rfingers 7.12502
rthumb 19.8768 -64.0159
lclavicle -2.6339e-015 -6.36111e-015
lhumerus 13.7779 -36.894 81.674
lradius 141.256
lwrist -4.50529
lhand -37.9065 -42.7665
lfingers 7.12502
lthumb -10.9491 -13.072
rfemur -6.27077 -4.97358 19.9263
rtibia 31.723
rfoot -23.887 -9.94621
rtoes 20.0885
lfemur -7.69613 -2.04719 -22.1374
ltibia 29.6844
lfoot -24.2435 -5.43673
ltoes -22.2893
549
root 0.523317 17.535 -26.3972 -0.302301 11.7923 -0.350476
lowerback 4.57725 1.14268 -5.56358
upperback 0.752335 1.24847 -0.123297
thorax -1.90759 0.659377 2.916
lowerneck -5.17856 7.60018 3.70471
upperneck 7.17408 10.3887 -5.85947
head 3.84552 5.02586 -2.05079
rclavicle -1.61513e-014 1.35174e-014
rhumerus -30.345 -24.0584 -78.0079
rradius 18.7921
rwrist 12.8507
rhand -5.97554 -394.838
rfingers 7.12502
rthumb 19.8559 -63.8438
lclavicle -1.61513e-014 1.35174e-014
lhumerus 13.8864 -36.6373 81.5083
lradius 141.269
lwrist -4.2442
lhand -37.7085 -42.0547
lfingers 7.12502
lthumb -10.7581 -12.3502
rfemur -6.04946 -4.84205 19.9874
rtibia 31.7424
rfoot -24.0402 -10.0495
rtoes 20.5747
lfemur -7.47221 -2.01732 -22.0828
ltibia 29.64
lfoot -24.2756 -5.48239
ltoes -22.5753
550
root 0.529443 17.5386 -26.3768 -0.368995 11.8711 -0.410586
lowerback 4.50897 1.14463 -5.51861
upperback 0.738863 1.25692 -0.141483
thorax -1.88268 0.662879 2.87244
lowerneck -5.14568 7.57867 3.66318
upperneck 7.286 10.3564 -5.70861
head 3.86284 5.01375 -1.99491
rclavicle -4.69132e-014 1.03368e-014
rhumerus -30.8542 -25.3717 -77.1276
rradius 18.3087
rwrist 13.8016
rhand -5.96664 -395.028
rfingers 7.12502
rthumb 19.8644 -64.0324
lclavicle -4.69132e-014 1.03368e-014
lhumerus 13.9108 -36.3628 81.3534
lradius 141.312
lwrist -4.19495
lhand -37.3896 -41.6126
lfingers 7.12502
lthumb -10.4505 -11.8924
rfemur -5.87826 -4.60774 20.0298
rtibia 31.7326
rfoot -24.3137 -9.87358
rtoes 22.4678
lfemur -7.32744 -2.11823 -22.025
ltibia 29.6273
lfoot -24.3259 -5.53925
ltoes -22.305
551
root 0.536349 17.5373 -26.3592 -0.445598 11.974 -0.478579
lowerback 4.51584 1.1769 -5.38462
upperback 0.688787 1.30308 -0.202961
thorax -1.93811 0.687187 2.73009
lowerneck -4.95315 7.41475 3.89227
upperneck 7.3165 10.1221 -5.6912
head 3.83786 4.9084 -2.05068
rclavicle -5.01683e-014 1.27222e-014
rhumerus -31.5078 -26.8378 -76.1299
rradius 17.8599
rwrist 14.6923
rhand -6.02429 -395.183
rfingers 7.12502
rthumb 19.809 -64.1936
lclavicle -5.01683e-014 1.27222e-014
lhumerus 13.8944 -36.2936 81.2402
lradius 141.366
lwrist -4.31089
lhand -37.0049 -41.302
lfingers 7.12502
lthumb -10.0794 -11.5634
rfemur -5.73189 -4.56867 20.0852
rtibia 31.705
rfoot -24.3883 -9.94516
rtoes 23.0002
lfemur -7.20367 -2.14231 -21.9566
ltibia 29.645
lfoot -24.4282 -5.66115
ltoes -21.948
552
root 0.543004 17.5311 -26.3435 -0.511821 12.0661 -0.566523
lowerback 4.46448 1.18438 -5.33467
upperback 0.668719 1.31857 -0.177331
thorax -1.93091 0.694851 2.72826
lowerneck -4.86814 7.35329 3.92155
upperneck 7.3639 10.0411 -5.68068
head 3.83484 4.87072 -2.05993
rclavicle 4.46272e-014 -4.37326e-015
rhumerus -31.996 -28.1828 -75.0702
rradius 17.2721
rwrist 15.919
rhand -6.04954 -395.024
rfingers 7.12502
rthumb 19.7847 -64.0372
lclavicle 4.46272e-014 -4.37326e-015
lhumerus 13.8806 -36.1738 81.217
lradius 141.386
lwrist -4.51208
lhand -36.6273 -41.0255
lfingers 7.12502
lthumb -9.71503 -11.2696
rfemur -5.60913 -4.63637 20.1757
rtibia 31.6585
rfoot -24.3197 -10.192
rtoes 22.3853
lfemur -7.13618 -1.98303 -21.8629
ltibia 29.7093
lfoot -24.5637 -5.79433
ltoes -22.2435
